<svg xmlns="http://www.w3.org/2000/svg" width="1080" height="1080" version="1.2" viewBox="0 0 810 810">
  <g fill="#fff">
    <path d="M599.102 447.45V199.351c0-35.551-28.954-64.5-64.653-64.5h-334.8c-35.7 0-64.649 28.949-64.649 64.5v248.097c0 35.7 28.95 64.653 64.648 64.653h9.75v84.75c0 6 3.75 11.546 9.301 13.796 1.801.75 3.75 1.204 5.7 1.204 3.902 0 7.8-1.5 10.652-4.352l95.398-95.398h204c35.7 0 64.653-28.954 64.653-64.653ZM451.5 427.5c1.352 6-.898 12.148-5.852 15.75-2.546 1.95-5.699 2.852-8.847 2.852-2.7 0-5.403-.75-7.801-2.25l-61.95-38.25-61.948 38.25c-5.102 3.296-11.704 3-16.653-.602-4.949-3.602-7.199-9.75-5.699-15.75l17.102-70.648-55.5-47.102c-4.5-3.898-6.301-10.2-4.5-16.05 1.949-5.7 7.046-9.9 13.199-10.348l72.449-5.403 27.75-67.347c2.25-5.551 7.8-9.301 13.8-9.301 6 0 11.552 3.75 13.95 9.3l27.602 67.348 72.597 5.403c6 .449 11.25 4.648 13.051 10.347 1.95 5.852.148 12.153-4.5 16.051l-55.5 47.102Zm0 0"/>
    <path d="M745.352 333.3H633.75c-8.25 0-15 6.75-15 15s6.75 15 15 15h111.602c19.046 0 34.648 15.598 34.648 34.65v248.1c0 19.052-15.602 34.65-34.648 34.65h-24.75c-8.25 0-15 6.75-15 15v63.448L631.5 685.051c-1.352-1.352-3-2.551-4.95-3.301-1.8-.75-3.75-1.2-5.698-1.2H410.55c-19.051 0-34.653-15.6-34.653-34.652v-99.296c0-8.25-6.75-15-15-15s-15 6.75-15 15v99.296c0 35.704 28.954 64.653 64.653 64.653h204.148l95.403 95.398c2.847 2.852 6.75 4.352 10.648 4.352 1.95 0 3.898-.301 5.7-1.2 5.55-2.25 9.3-7.8 9.3-13.8v-84.75h9.75c35.7 0 64.648-28.95 64.648-64.653V397.801c0-35.7-28.949-64.653-64.648-64.653Zm0 0"/>
    <path d="M720.602 568.95h-297.75c-8.25 0-15 6.75-15 15s6.75 15 15 15h297.75c8.25 0 15-6.75 15-15s-6.75-15-15-15ZM633.75 536.852h86.852c8.25 0 15-6.75 15-15s-6.75-15-15-15H633.75c-8.25 0-15 6.75-15 15s6.75 15 15 15ZM633.75 474.898h86.852c8.25 0 15-6.75 15-15s-6.75-15-15-15H633.75c-8.25 0-15 6.75-15 15s6.75 15 15 15ZM193.8 97.05c8.25 0 15-6.75 15-15V15c0-8.25-6.75-15-15-15s-15 6.75-15 15v67.05c0 8.25 6.75 15 15 15ZM78 56.7c-5.852-5.848-15.3-5.848-21.148 0a14.938 14.938 0 0 0 0 21.152l47.398 47.398c3 3 6.75 4.352 10.648 4.352 3.903 0 7.653-1.5 10.653-4.352 5.847-5.852 5.847-15.3 0-21.148L78.148 56.699ZM82.05 178.8H15c-8.25 0-15 6.75-15 15s6.75 15 15 15h67.05c8.25 0 15-6.75 15-15s-6.75-15-15-15ZM384.3 297.898l-17.25-42.148-17.25 42.148c-2.1 5.25-7.05 8.852-12.75 9.301l-45.3 3.301 34.648 29.55c4.352 3.598 6.153 9.45 4.801 14.848l-10.648 44.25 38.699-23.847a14.695 14.695 0 0 1 7.8-2.25c2.7 0 5.4.75 7.95 2.25l38.7 23.847-10.802-44.25c-1.347-5.398.602-11.25 4.801-14.847L442.5 310.5l-45.45-3.3c-5.55-.45-10.5-4.052-12.75-9.302Zm0 0"/>
  </g>
</svg>
